<?xml version="1.0" encoding="UTF-8" standalone="no"?>
<!-- Created with Inkscape (http://www.inkscape.org/) -->

<svg
   xmlns:dc="http://purl.org/dc/elements/1.1/"
   xmlns:cc="http://creativecommons.org/ns#"
   xmlns:rdf="http://www.w3.org/1999/02/22-rdf-syntax-ns#"
   xmlns:svg="http://www.w3.org/2000/svg"
   xmlns="http://www.w3.org/2000/svg"
   xmlns:sodipodi="http://sodipodi.sourceforge.net/DTD/sodipodi-0.dtd"
   xmlns:inkscape="http://www.inkscape.org/namespaces/inkscape"
   width="226.14285"
   height="282.74673"
   id="svg2"
   version="1.1"
   inkscape:version="0.48.4 r9939">
  <defs
     id="defs4">
    <marker
       inkscape:stockid="Arrow1Lend"
       orient="auto"
       refY="0"
       refX="0"
       id="Arrow1Lend"
       style="overflow:visible">
      <path
         id="path3845"
         d="M 0,0 5,-5 -12.5,0 5,5 0,0 z"
         style="fill-rule:evenodd;stroke:#000000;stroke-width:1pt"
         transform="matrix(-0.8,0,0,-0.8,-10,0)"
         inkscape:connector-curvature="0" />
    </marker>
    <marker
       inkscape:stockid="Arrow1Lend"
       orient="auto"
       refY="0"
       refX="0"
       id="Arrow1Lend-5"
       style="overflow:visible">
      <path
         inkscape:connector-curvature="0"
         id="path3845-4"
         d="M 0,0 5,-5 -12.5,0 5,5 0,0 z"
         style="fill-rule:evenodd;stroke:#000000;stroke-width:1pt"
         transform="matrix(-0.8,0,0,-0.8,-10,0)" />
    </marker>
    <marker
       inkscape:stockid="Arrow1Lend"
       orient="auto"
       refY="0"
       refX="0"
       id="Arrow1Lend-5-8"
       style="overflow:visible">
      <path
         inkscape:connector-curvature="0"
         id="path3845-4-5"
         d="M 0,0 5,-5 -12.5,0 5,5 0,0 z"
         style="fill-rule:evenodd;stroke:#000000;stroke-width:1pt"
         transform="matrix(-0.8,0,0,-0.8,-10,0)" />
    </marker>
    <marker
       inkscape:stockid="Arrow1Lend"
       orient="auto"
       refY="0"
       refX="0"
       id="Arrow1Lend-5-3"
       style="overflow:visible">
      <path
         inkscape:connector-curvature="0"
         id="path3845-4-3"
         d="M 0,0 5,-5 -12.5,0 5,5 0,0 z"
         style="fill-rule:evenodd;stroke:#000000;stroke-width:1pt"
         transform="matrix(-0.8,0,0,-0.8,-10,0)" />
    </marker>
    <marker
       inkscape:stockid="Arrow1Lend"
       orient="auto"
       refY="0"
       refX="0"
       id="Arrow1Lend-5-7"
       style="overflow:visible">
      <path
         inkscape:connector-curvature="0"
         id="path3845-4-6"
         d="M 0,0 5,-5 -12.5,0 5,5 0,0 z"
         style="fill-rule:evenodd;stroke:#000000;stroke-width:1pt"
         transform="matrix(-0.8,0,0,-0.8,-10,0)" />
    </marker>
  </defs>
  <sodipodi:namedview
     id="base"
     pagecolor="#ffffff"
     bordercolor="#666666"
     borderopacity="1.0"
     inkscape:pageopacity="0.0"
     inkscape:pageshadow="2"
     inkscape:zoom="0.88"
     inkscape:cx="349.27172"
     inkscape:cy="25.259739"
     inkscape:document-units="px"
     inkscape:current-layer="layer1"
     showgrid="false"
     fit-margin-top="0"
     fit-margin-left="0"
     fit-margin-right="0"
     fit-margin-bottom="0"
     inkscape:window-width="1182"
     inkscape:window-height="921"
     inkscape:window-x="8"
     inkscape:window-y="75"
     inkscape:window-maximized="0" />
  <metadata
     id="metadata7">
    <rdf:RDF>
      <cc:Work
         rdf:about="">
        <dc:format>image/svg+xml</dc:format>
        <dc:type
           rdf:resource="http://purl.org/dc/dcmitype/StillImage" />
        <dc:title></dc:title>
      </cc:Work>
    </rdf:RDF>
  </metadata>
  <g
     inkscape:label="Layer 1"
     inkscape:groupmode="layer"
     id="layer1"
     transform="translate(-7.2142873,-7.8621845)">
    <g
       id="g4557">
      <path
         transform="translate(-232,-64)"
         d="m 382.85713,98.076469 c 0,14.201611 -12.79186,25.714281 -28.57142,25.714281 -15.77957,0 -28.57143,-11.51267 -28.57143,-25.714281 0,-14.201607 12.79186,-25.714284 28.57143,-25.714284 15.77956,0 28.57142,11.512677 28.57142,25.714284 z"
         sodipodi:ry="25.714285"
         sodipodi:rx="28.571428"
         sodipodi:cy="98.076469"
         sodipodi:cx="354.28571"
         id="path2991"
         style="fill:#ff0000;fill-opacity:1;stroke:#000000;stroke-opacity:1"
         sodipodi:type="arc" />
      <path
         d="m 382.85713,98.076469 c 0,14.201611 -12.79186,25.714281 -28.57142,25.714281 -15.77957,0 -28.57143,-11.51267 -28.57143,-25.714281 0,-14.201607 12.79186,-25.714284 28.57143,-25.714284 15.77956,0 28.57142,11.512677 28.57142,25.714284 z"
         sodipodi:ry="25.714285"
         sodipodi:rx="28.571428"
         sodipodi:cy="98.076469"
         sodipodi:cx="354.28571"
         id="path2991-1"
         style="fill:#0000ff;fill-opacity:1;stroke:#000000;stroke-opacity:1"
         sodipodi:type="arc"
         transform="translate(-277.45454,12.318182)" />
      <path
         d="m 382.85713,98.076469 c 0,14.201611 -12.79186,25.714281 -28.57142,25.714281 -15.77957,0 -28.57143,-11.51267 -28.57143,-25.714281 0,-14.201607 12.79186,-25.714284 28.57143,-25.714284 15.77956,0 28.57142,11.512677 28.57142,25.714284 z"
         sodipodi:ry="25.714285"
         sodipodi:rx="28.571428"
         sodipodi:cy="98.076469"
         sodipodi:cx="354.28571"
         id="path2991-18"
         style="fill:#0000ff;fill-opacity:1;stroke:#000000;stroke-opacity:1"
         sodipodi:type="arc"
         transform="translate(-187.13635,12.318428)" />
      <path
         d="m 382.85713,98.076469 c 0,14.201611 -12.79186,25.714281 -28.57142,25.714281 -15.77957,0 -28.57143,-11.51267 -28.57143,-25.714281 0,-14.201607 12.79186,-25.714284 28.57143,-25.714284 15.77956,0 28.57142,11.512677 28.57142,25.714284 z"
         sodipodi:ry="25.714285"
         sodipodi:rx="28.571428"
         sodipodi:cy="98.076469"
         sodipodi:cx="354.28571"
         id="path2991-3"
         style="fill:#00ff00;fill-opacity:1;stroke:#000000;stroke-opacity:1"
         sodipodi:type="arc"
         transform="translate(-317.99999,88)" />
      <path
         d="m 382.85713,98.076469 c 0,14.201611 -12.79186,25.714281 -28.57142,25.714281 -15.77957,0 -28.57143,-11.51267 -28.57143,-25.714281 0,-14.201607 12.79186,-25.714284 28.57143,-25.714284 15.77956,0 28.57142,11.512677 28.57142,25.714284 z"
         sodipodi:ry="25.714285"
         sodipodi:rx="28.571428"
         sodipodi:cy="98.076469"
         sodipodi:cx="354.28571"
         id="path2991-8"
         style="fill:#00ff00;fill-opacity:1;stroke:#000000;stroke-opacity:1"
         sodipodi:type="arc"
         transform="translate(-223.99999,88)" />
      <path
         d="m 382.85713,98.076469 c 0,14.201611 -12.79186,25.714281 -28.57142,25.714281 -15.77957,0 -28.57143,-11.51267 -28.57143,-25.714281 0,-14.201607 12.79186,-25.714284 28.57143,-25.714284 15.77956,0 28.57142,11.512677 28.57142,25.714284 z"
         sodipodi:ry="25.714285"
         sodipodi:rx="28.571428"
         sodipodi:cy="98.076469"
         sodipodi:cx="354.28571"
         id="path2991-35"
         style="fill:#00ff00;fill-opacity:1;stroke:#000000;stroke-opacity:1"
         sodipodi:type="arc"
         transform="translate(-149.99999,88)" />
      <path
         d="m 382.85713,98.076469 c 0,14.201611 -12.79186,25.714281 -28.57142,25.714281 -15.77957,0 -28.57143,-11.51267 -28.57143,-25.714281 0,-14.201607 12.79186,-25.714284 28.57143,-25.714284 15.77956,0 28.57142,11.512677 28.57142,25.714284 z"
         sodipodi:ry="25.714285"
         sodipodi:rx="28.571428"
         sodipodi:cy="98.076469"
         sodipodi:cx="354.28571"
         id="path2991-2"
         style="fill:#ffd5d5;fill-opacity:1;stroke:#000000;stroke-opacity:1"
         sodipodi:type="arc"
         transform="translate(-257.90908,166.31818)" />
      <path
         d="m 382.85713,98.076469 c 0,14.201611 -12.79186,25.714281 -28.57142,25.714281 -15.77957,0 -28.57143,-11.51267 -28.57143,-25.714281 0,-14.201607 12.79186,-25.714284 28.57143,-25.714284 15.77956,0 28.57142,11.512677 28.57142,25.714284 z"
         sodipodi:ry="25.714285"
         sodipodi:rx="28.571428"
         sodipodi:cy="98.076469"
         sodipodi:cx="354.28571"
         id="path2991-9"
         style="fill:#ffd5d5;fill-opacity:1;stroke:#000000;stroke-opacity:1"
         sodipodi:type="arc"
         transform="translate(-183.22726,166.31818)" />
      <path
         inkscape:connector-curvature="0"
         id="path4306"
         d="M 104.36364,55.13491 86.18182,84.68036"
         style="fill:none;stroke:#000000;stroke-width:1px;stroke-linecap:butt;stroke-linejoin:miter;stroke-opacity:1;marker-end:url(#Arrow1Lend-5)" />
      <path
         inkscape:connector-curvature="0"
         id="path4306-0"
         d="m 139.59091,55.13491 18.18182,29.54545"
         style="fill:none;stroke:#000000;stroke-width:1px;stroke-linecap:butt;stroke-linejoin:miter;stroke-opacity:1;marker-end:url(#Arrow1Lend-5)" />
      <path
         inkscape:connector-curvature="0"
         id="path4306-8"
         d="M 64.59091,132.40764 46.40909,161.95309"
         style="fill:none;stroke:#000000;stroke-width:1px;stroke-linecap:butt;stroke-linejoin:miter;stroke-opacity:1;marker-end:url(#Arrow1Lend-5)" />
      <path
         inkscape:connector-curvature="0"
         id="path4306-3"
         d="m 153.5,132.40764 -18.18182,29.54545"
         style="fill:none;stroke:#000000;stroke-width:1px;stroke-linecap:butt;stroke-linejoin:miter;stroke-opacity:1;marker-end:url(#Arrow1Lend-5)" />
      <path
         style="fill:none;stroke:#000000;stroke-width:1px;stroke-linecap:butt;stroke-linejoin:miter;stroke-opacity:1;marker-end:url(#Arrow1Lend-5)"
         d="m 183.04546,132.40764 18.18182,29.54545"
         id="path4551"
         inkscape:connector-curvature="0" />
      <path
         style="fill:none;stroke:#000000;stroke-width:1px;stroke-linecap:butt;stroke-linejoin:miter;stroke-opacity:1;marker-end:url(#Arrow1Lend-5)"
         d="M 115.5,208.40764 97.31818,237.95309"
         id="path4553"
         inkscape:connector-curvature="0" />
      <path
         inkscape:connector-curvature="0"
         id="path4555"
         d="m 145.04546,208.40764 18.18182,29.54545"
         style="fill:none;stroke:#000000;stroke-width:1px;stroke-linecap:butt;stroke-linejoin:miter;stroke-opacity:1;marker-end:url(#Arrow1Lend-5)" />
    </g>
  </g>
</svg>
